<?xml version="1.0" encoding="UTF-8" standalone="no"?> <svg xmlns="http://www.w3.org/2000/svg" viewBox="0 0 64 64"><defs><style>.cls-1{fill:#f78a38;}.cls-1,.cls-3,.cls-4,.cls-5,.cls-7,.cls-9{stroke:#54596e;}.cls-1,.cls-3,.cls-4,.cls-5,.cls-7,.cls-8,.cls-9{stroke-linecap:round;stroke-linejoin:round;stroke-width:2px;}.cls-2,.cls-6{fill:#54596e;}.cls-2{opacity:0.15;}.cls-3,.cls-8{fill:none;}.cls-4{fill:#999;}.cls-5{fill:#a1b7ff;}.cls-7{fill:#fff35f;}.cls-8{stroke:#fff35f;}.cls-9{fill:#9af43b;}</style></defs><title>electric-car</title><g id="electric-car"><path class="cls-1" d="M61,55H3V40.17A4.17,4.17,0,0,1,7.17,36L32,35l24.83,1A4.17,4.17,0,0,1,61,40.17Z"/><rect class="cls-2" x="7" y="39" width="50" height="9" rx="4.5" ry="4.5"/><line class="cls-3" x1="25" y1="55" x2="39" y2="55"/><rect class="cls-4" x="48" y="55" width="13" height="6"/><rect class="cls-4" x="3" y="55" width="13" height="6"/><path class="cls-5" d="M49.08,20H14.92a3.11,3.11,0,0,0-3.1,2.91L9,36l23-1,23,1L52.18,22.91A3.11,3.11,0,0,0,49.08,20Z"/><path class="cls-3" d="M26.86,28.07A7,7,0,0,0,32,30a7,7,0,0,0,5.1-1.9"/><circle class="cls-6" cx="21" cy="25" r="2"/><circle class="cls-6" cx="43" cy="25" r="2"/><path class="cls-1" d="M56,29h7a0,0,0,0,1,0,0v5a0,0,0,0,1,0,0H61a5,5,0,0,1-5-5v0A0,0,0,0,1,56,29Z" transform="translate(119 63) rotate(180)"/><line class="cls-3" x1="56" y1="36" x2="56" y2="34"/><path class="cls-1" d="M6,29H8a0,0,0,0,1,0,0v5a0,0,0,0,1,0,0H1a0,0,0,0,1,0,0v0A5,5,0,0,1,6,29Z"/><line class="cls-3" x1="8" y1="36" x2="8" y2="34"/><line class="cls-3" x1="60" y1="47" x2="4" y2="47"/><path class="cls-7" d="M56,40h5a0,0,0,0,1,0,0v7a0,0,0,0,1,0,0H49a0,0,0,0,1,0,0v0A7,7,0,0,1,56,40Z"/><path class="cls-7" d="M3,40H15a0,0,0,0,1,0,0v7a0,0,0,0,1,0,0H10a7,7,0,0,1-7-7v0A0,0,0,0,1,3,40Z" transform="translate(18 87) rotate(180)"/><line class="cls-8" x1="7" y1="51" x2="13" y2="51"/><line class="cls-8" x1="51" y1="51" x2="57" y2="51"/><circle class="cls-9" cx="32" cy="13" r="11"/><polyline class="cls-9" points="32 6 27 13 36 13 31.5 20"/></g></svg>
